<svg xmlns="http://www.w3.org/2000/svg" viewBox="0 0 386.58 104.95">
  <path fill="#ffffff" d="M1010.88,593V488H766V593Zm-163-52.48c0,17.14-13.87,30.36-31.19,30.36s-31.19-13.22-31.19-30.36,13.87-30.35,31.19-30.35,31.19,13.22,31.19,30.35Zm60.4,8.76,14.43,20.48H904.78l-11.26-17H882.81v17H868.48V511.24h29.69c13,0,21.6,9,21.6,20.67a18.78,18.78,0,0,1-11.54,17.32ZM991.43,525H958.21v11.21h27.08V550H958.21v19.69H943.88V511.24h47.55V525Zm-86,6.9c0-3.82-1.87-6.89-8.1-6.89H882.81v13.87h14.53c6.23,0,8.1-3.07,8.1-7ZM833,540.47a16.39,16.39,0,1,0-16.39,16.58A16.83,16.83,0,0,0,833,540.47Z" transform="translate(-766 -488)"/>
  <path fill="#ffffff" d="M1152.58,571V509.17h-8.4v46.26l-30-46.26h-7.45V571h8.4V524.48l30,46.48Zm-69.12-7q7.27-8.46,7.28-23.88t-7.28-23.93q-7.29-8.52-19.63-8.51t-19.68,8.51q-7.34,8.5-7.34,23.93t7.34,23.88q7.35,8.46,19.68,8.45t19.63-8.45Zm-2.18-23.88q0,12.23-4.74,18.24a16.5,16.5,0,0,1-25.47,0q-4.78-6-4.79-18.24t4.79-18.3a16.6,16.6,0,0,1,25.47,0q4.74,6,4.74,18.3Z" transform="translate(-766 -488)"/>
</svg>
